{
  "accessors": [
    {
      "bufferView": 2,
      "componentType": 5126,
      "count": 6128,
      "max": [
        0.12290100008249283,
        0.00046400001156143844,
        0.08790300041437149
      ],
      "min": [
        0.01255900040268898,
        -0.04133100062608719,
        -0.02757599949836731
      ],
      "type": "VEC3"
    },
    {
      "bufferView": 2,
      "byteOffset": 73536,
      "componentType": 5126,
      "count": 6128,
      "max": [
        0.9992991089820862,
        0.9963798522949219,
        0.9992027282714844
      ],
      "min": [
        -0.9989023804664612,
        -0.999951958656311,
        -0.9970163702964783
      ],
      "type": "VEC3"
    },
    {
      "bufferView": 1,
      "componentType": 5126,
      "count": 6128,
      "max": [
        0.9999210238456726,
        0.9677960276603699
      ],
      "min": [
        7.300000288523734e-05,
        8.70000003487803e-05
      ],
      "type": "VEC2"
    },
    {
      "bufferView": 0,
      "componentType": 5125,
      "count": 31722,
      "type": "SCALAR"
    }
  ],
  "asset": {
    "extras": {
      "author": "saehyun806 (https://sketchfab.com/saehyun806)",
      "license": "CC-BY-4.0 (http://creativecommons.org/licenses/by/4.0/)",
      "source": "https://sketchfab.com/3d-models/gaudi-lizard-31e94aef12aa44d89deffc6f391dfaec",
      "title": "Gaudi_Lizard"
    },
    "generator": "Sketchfab-12.65.0",
    "version": "2.0"
  },
  "bufferViews": [
    {
      "buffer": 0,
      "byteLength": 126888,
      "name": "floatBufferViews",
      "target": 34963
    },
    {
      "buffer": 0,
      "byteLength": 49024,
      "byteOffset": 126888,
      "byteStride": 8,
      "name": "floatBufferViews",
      "target": 34962
    },
    {
      "buffer": 0,
      "byteLength": 147072,
      "byteOffset": 175912,
      "byteStride": 12,
      "name": "floatBufferViews",
      "target": 34962
    }
  ],
  "buffers": [
    {
      "byteLength": 322984,
      "uri": "scene.bin"
    }
  ],
  "images": [
    {
      "uri": "textures/material_baseColor.jpeg"
    },
    {
      "uri": "textures/material_metallicRoughness.png"
    }
  ],
  "materials": [
    {
      "doubleSided": true,
      "name": "material",
      "pbrMetallicRoughness": {
        "baseColorTexture": {
          "index": 0
        },
        "metallicFactor": 0.5003177102968539,
        "metallicRoughnessTexture": {
          "index": 1
        },
        "roughnessFactor": 0.11116060027484222
      }
    }
  ],
  "meshes": [
    {
      "name": "Object_0",
      "primitives": [
        {
          "attributes": {
            "NORMAL": 1,
            "POSITION": 0,
            "TEXCOORD_0": 2
          },
          "indices": 3,
          "material": 0,
          "mode": 4
        }
      ]
    }
  ],
  "nodes": [
    {
      "children": [
        1
      ],
      "matrix": [
        1.0,
        0.0,
        0.0,
        0.0,
        0.0,
        2.220446049250313e-16,
        -1.0,
        0.0,
        0.0,
        1.0,
        2.220446049250313e-16,
        0.0,
        0.0,
        0.0,
        0.0,
        1.0
      ],
      "name": "Sketchfab_model"
    },
    {
      "children": [
        2
      ],
      "name": "ass.obj.cleaner.materialmerger.gles"
    },
    {
      "mesh": 0,
      "name": "Object_2"
    }
  ],
  "samplers": [
    {
      "magFilter": 9729,
      "minFilter": 9987,
      "wrapS": 10497,
      "wrapT": 10497
    }
  ],
  "scene": 0,
  "scenes": [
    {
      "name": "Sketchfab_Scene",
      "nodes": [
        0
      ]
    }
  ],
  "textures": [
    {
      "sampler": 0,
      "source": 0
    },
    {
      "sampler": 0,
      "source": 1
    }
  ]
}
